<svg width="43" height="51" viewBox="0 0 43 51" fill="none" xmlns="http://www.w3.org/2000/svg">
<path fill-rule="evenodd" clip-rule="evenodd" d="M10.868 6.33871L0.442883 12.2266L0.422688 13.3709C0.411546 14.0002 0.410388 14.5151 0.420137 14.5151C0.429886 14.5151 4.89525 11.9983 10.3432 8.92226L20.2485 3.32931L20.2777 26.6126L20.3071 49.8959L20.8342 50.1979L21.3615 50.5L21.8783 50.204L22.395 49.9078L22.4243 26.6178L22.4536 3.32772L32.2606 8.86416L42.0676 14.4005L42.101 13.3047C42.1194 12.7021 42.0933 12.1718 42.0429 12.1261C41.9236 12.0181 21.6232 0.565227 21.4359 0.50021C21.3573 0.472978 16.6018 3.10033 10.868 6.33871ZM16.5346 7.67717C15.5771 8.22035 11.4773 10.5384 7.42395 12.8283L0.0541996 16.9916L0.0298303 23.0153L0.00545339 29.039H7.66071H15.316V36.9138V44.7886L9.25188 41.3663L3.18779 37.944L3.15692 34.7396L3.12616 31.5353H1.56308H0L0.0270408 35.5727L0.0541996 39.6101L6.37941 43.1817C9.85828 45.146 13.906 47.4364 15.3742 48.2713C16.8425 49.106 18.135 49.8234 18.2467 49.8653C18.439 49.9374 18.4495 49.3227 18.4495 38.0151V26.0888H10.788H3.12663L3.15715 22.3775L3.18779 18.6661L9.25083 15.2405L15.3139 11.8148L15.3439 17.732L15.374 23.6493H16.8828H18.3915L18.4212 15.1675C18.4376 10.5026 18.4115 6.6866 18.3632 6.68762C18.3149 6.68864 17.4921 7.13389 16.5346 7.67717ZM24.2525 28.3015C24.2525 40.1901 24.2916 49.9163 24.3395 49.9154C24.3875 49.9145 25.0794 49.5414 25.8773 49.0863L27.3281 48.2589L27.3574 30.0357L27.3868 11.8125L29.4171 12.9584L31.4473 14.1043L31.4768 30.0102L31.5062 45.9159L32.8989 45.1263C33.6649 44.6919 34.3315 44.2995 34.3804 44.2544C34.4292 44.2091 34.468 37.8056 34.4666 30.0245C34.4651 22.2432 34.5035 15.8799 34.5518 15.8837C34.6002 15.8876 35.7365 16.5154 37.077 17.279L39.5142 18.6672L39.5438 29.9804C39.5601 36.2026 39.5946 41.2935 39.6204 41.2935C39.6464 41.2935 40.3257 40.9233 41.1301 40.4709L42.5926 39.6483L42.5924 28.3023L42.5921 16.9561L33.5094 11.8236C28.5138 9.00066 24.3875 6.68989 24.3395 6.68842C24.2916 6.68694 24.2525 16.4128 24.2525 28.3015Z" fill="white"/>
</svg>
