<svg width="101" height="100" viewBox="0 0 101 100" fill="none" xmlns="http://www.w3.org/2000/svg">
<rect x="1" y="0.5" width="99" height="99" rx="4.5" fill="#F7E5C1" fill-opacity="0.5" stroke="#422A3C"/>
<path d="M56.8005 57.6063C56.3983 57.1549 55.7064 57.1169 55.255 57.5191C54.5955 58.1083 52.9418 58.7018 50.7339 58.7018C48.5247 58.7018 46.871 58.1069 46.2129 57.5191C45.7614 57.1169 45.0696 57.1549 44.6674 57.6063C44.2652 58.0563 44.3032 58.7482 44.7546 59.1518C45.9738 60.2416 48.2097 60.8913 50.7339 60.8913C53.2596 60.8913 55.4941 60.2416 56.7133 59.1518C57.1647 58.7482 57.2041 58.0577 56.8005 57.6063Z" fill="#BA7894"/>
<path d="M48.1449 47.9595C47.7371 47.5123 47.0452 47.4814 46.5995 47.8892C46.2831 48.1775 45.4042 48.4883 44.2215 48.4883C43.0388 48.4883 42.1599 48.1775 41.8435 47.8892C41.3963 47.4814 40.7045 47.5137 40.2981 47.9595C39.8902 48.4067 39.9226 49.0986 40.3684 49.505C41.1727 50.239 42.6127 50.6764 44.2215 50.6764C45.8302 50.6764 47.2717 50.239 48.0746 49.505C48.5204 49.0986 48.5527 48.4053 48.1449 47.9595Z" fill="#BA7894"/>
<path d="M49.1969 42.8281C48.1717 42.163 46.3126 41.7664 44.2215 41.7664C42.1304 41.7664 40.27 42.163 39.2462 42.8281C38.74 43.1572 38.5951 43.835 38.9242 44.3413C39.1337 44.6633 39.4853 44.8391 39.8425 44.8391C40.0464 44.8391 40.2531 44.7814 40.4373 44.6619C40.9815 44.3089 42.3625 43.9531 44.2215 43.9531C46.0806 43.9531 47.4615 44.3089 48.0058 44.6619C48.5134 44.9909 49.1912 44.8475 49.5189 44.3399C49.8479 43.835 49.7045 43.1572 49.1969 42.8281Z" fill="#BA7894"/>
<path d="M61.1697 47.9595C60.7619 47.5123 60.07 47.4814 59.6242 47.8892C59.3078 48.1775 58.4289 48.4883 57.2463 48.4883C56.0636 48.4883 55.1847 48.1775 54.8683 47.8892C54.4225 47.4814 53.7292 47.5137 53.3228 47.9595C52.915 48.4067 52.9474 49.0986 53.3932 49.505C54.1975 50.239 55.6375 50.6764 57.2463 50.6764C58.855 50.6764 60.295 50.239 61.0994 49.505C61.5466 49.0986 61.5775 48.4053 61.1697 47.9595Z" fill="#BA7894"/>
<path d="M62.223 42.8281C61.1979 42.163 59.3388 41.7664 57.2463 41.7664C55.1552 41.7664 53.2947 42.163 52.271 42.8281C51.7633 43.1572 51.6199 43.835 51.949 44.3413C52.278 44.8475 52.9558 44.9924 53.4635 44.6633C54.0077 44.3103 55.3886 43.9545 57.2477 43.9545C59.1068 43.9545 60.4877 44.3103 61.0319 44.6633C61.2161 44.7828 61.4229 44.8405 61.6268 44.8405C61.9854 44.8405 62.3355 44.6647 62.5451 44.3427C62.8741 43.835 62.7293 43.1572 62.223 42.8281Z" fill="#BA7894"/>
<path d="M71.9402 78.575C70.008 76.9325 67.3727 76.0283 64.5208 76.0283C62.4427 76.0283 60.7194 75.7718 59.4096 75.4691C57.9743 75.1373 57.0789 73.7901 57.0789 72.317C57.0789 70.8036 58.0439 69.4817 59.3837 68.778C62.9146 66.9233 65.7815 63.9708 67.5281 60.3768C68.408 58.5662 70.118 57.2413 71.789 56.1187C73.7032 54.8328 74.9664 52.6481 74.9664 50.18C74.9664 47.5361 73.4945 45.1849 71.3102 43.9481C70.2607 43.3539 69.3948 42.3495 69.3948 41.1435C69.3948 40.9037 69.4291 40.6651 69.4916 40.4336C70.6548 36.1236 70.5726 31.9229 70.2864 29.1144C70.1191 27.4663 69.8659 26.1106 69.6831 25.2641C69.513 24.478 69.4033 24.0533 69.3217 23.8072C69.3048 23.7425 69.2837 23.6792 69.2542 23.6173C68.042 21.0481 65.8862 18.8586 63.1272 17.2175C63.0709 17.1767 63.0119 17.143 62.95 17.1134C59.5595 15.1461 55.2831 14 50.7339 14C47.1522 14 43.6492 14.7088 40.6047 16.0489C40.052 16.2922 39.8003 16.9377 40.0436 17.4917C40.2869 18.0444 40.9323 18.2961 41.4864 18.0528C44.2553 16.8336 47.4531 16.1895 50.7339 16.1895C52.2163 16.1895 53.6643 16.3197 55.0519 16.5669C57.7764 17.0522 58.2111 20.2935 55.8175 21.6823C55.2944 21.9861 55.1172 22.6555 55.4209 23.1786C55.6234 23.5287 55.9905 23.7242 56.3687 23.7242C56.5558 23.7242 56.7442 23.6764 56.9172 23.5766C57.9587 22.9721 58.9151 22.3642 59.7944 21.7471C61.5498 20.5151 63.9792 20.2321 65.4226 21.8181C66.0017 22.4543 66.5012 23.134 66.9098 23.8517C66.9754 23.9669 66.9697 24.1082 66.8973 24.2192C66.8706 24.2586 66.8439 24.2994 66.8172 24.3387C64.4209 27.8291 59.3359 31.1731 51.9798 34.0967C51.9363 34.1136 51.8913 34.1305 51.8477 34.1488C51.6873 34.212 51.527 34.2753 51.3653 34.3372C46.3257 36.284 41.2168 37.6779 37.6656 38.5328C35.6007 39.03 33.5286 37.7312 33.3252 35.6171C33.3118 35.4777 33.2995 35.3388 33.2882 35.2005C33.1561 33.5797 34.3282 32.1642 35.8909 31.7145C36.5842 31.5134 37.3014 31.3067 37.9933 31.1464C38.0045 31.1436 38.0158 31.1408 38.027 31.138C42.5256 29.9469 46.9525 28.3381 52.382 25.9208C52.9347 25.6747 53.1822 25.0278 52.9361 24.4766C52.69 23.9253 52.0431 23.6764 51.4919 23.9225C46.1805 26.2878 41.8591 27.86 37.4842 29.0188C36.7403 29.1917 35.9992 29.4055 35.2834 29.6122C34.302 29.8963 33.3725 29.1112 33.5121 28.099C33.7247 26.5573 33.9901 25.3997 34.1371 24.8197C34.1949 24.5912 34.277 24.3703 34.3869 24.1618C35.149 22.7153 36.292 21.3955 37.7908 20.2311C38.2689 19.8613 38.3547 19.1736 37.9848 18.6955C37.6136 18.2188 36.9273 18.1316 36.4492 18.5014C34.5409 19.9836 33.115 21.7048 32.2108 23.6202C32.1883 23.6694 32.1686 23.7186 32.1531 23.7706C32.0505 24.1104 29.7056 32.051 31.9731 40.437C32.0357 40.6684 32.0702 40.9078 32.0702 41.1475C32.0702 42.3533 31.2036 43.3573 30.1543 43.9513C27.9719 45.1867 26.5 47.5383 26.5 50.1814C26.5 52.6494 27.7637 54.8339 29.6777 56.1199C31.3486 57.2425 33.0584 58.5675 33.9383 60.378C35.6851 63.9719 38.5524 66.9243 42.0826 68.7791C43.4225 69.483 44.3875 70.8051 44.3875 72.3186C44.3875 73.7917 43.4924 75.139 42.0572 75.4712C40.7472 75.7743 39.024 76.0311 36.9456 76.0311C34.0937 76.0311 31.4598 76.9353 29.5263 78.5778C27.5758 80.2344 26.5 82.483 26.5 84.9059C26.5 85.5106 26.9894 86 27.5941 86H73.8737C74.4784 86 74.9678 85.5106 74.9678 84.9059C74.9678 82.483 73.892 80.2344 71.9402 78.575ZM69.2148 54.8361C69.333 53.9783 69.3948 53.112 69.3948 52.2472V51.6596C69.3948 48.6245 72.7783 47.1463 72.7783 50.1814C72.7783 52.3936 71.316 54.2786 69.308 54.9146C69.2583 54.9303 69.2089 54.8879 69.2148 54.8361ZM28.6881 50.1814C28.6881 47.1463 32.0716 48.6245 32.0716 51.6596V52.2472C32.0716 53.1134 32.1334 53.9783 32.2516 54.8361C32.2595 54.8877 32.2081 54.9303 32.1584 54.9145C30.1504 54.2773 28.6881 52.3936 28.6881 50.1814ZM67.4219 27.1048C67.4472 27.0767 67.4725 27.0472 67.4978 27.0191C67.5667 26.9403 67.6342 26.8616 67.7003 26.7828C67.7157 26.764 67.7458 26.7717 67.75 26.7957C68.119 28.8732 68.4868 32.1022 68.1355 35.6745C67.9309 37.7554 67.1735 39.3117 65.1351 38.846C61.6249 38.0441 60.0885 32.9148 63.0546 30.8737C64.8142 29.6628 66.2713 28.4057 67.4219 27.1048ZM34.5241 55.1877C34.5227 55.1764 34.5198 55.1638 34.517 55.1525C34.3441 54.1948 34.2611 53.2203 34.2611 52.2472V44.143V41.5661C34.2611 41.5471 34.275 41.5305 34.2934 41.5259C35.988 41.1884 37.6727 40.7933 39.3489 40.3742C41.1152 39.9327 42.8716 39.4545 44.6167 38.9356C45.76 38.5953 46.8991 38.2381 48.0297 37.8598C48.0708 37.8462 48.1136 37.8388 48.1569 37.8388H52.5652C53.1042 37.8388 53.6399 37.9271 54.1525 38.094C58.2472 39.4272 62.0563 40.3871 64.657 40.9806C66.1372 41.3185 67.2081 42.6233 67.2081 44.1416V52.2458C67.2081 53.2175 67.1223 54.1948 66.9508 55.1525C66.9494 55.1638 66.9466 55.175 66.9452 55.1862C65.8258 61.3794 61.2316 66.3786 55.262 68.0872C55.2522 68.09 55.2423 68.0928 55.2325 68.0956C53.7714 68.5062 52.2527 68.72 50.7339 68.72C49.2194 68.72 47.6894 68.5161 46.2339 68.0956C46.2269 68.0942 46.2213 68.0914 46.2142 68.09C40.2419 66.3828 35.6448 61.3822 34.5241 55.1877ZM28.7922 83.8106C28.7922 83.8105 28.7922 83.8104 28.7922 83.8103C29.0524 82.459 29.7949 81.2201 30.9437 80.2428C32.4808 78.9364 34.6127 78.2178 36.9456 78.2178C42.5777 78.2178 45.8584 76.5092 45.9948 76.4361C46.352 76.2463 46.5756 75.875 46.5756 75.47C46.5756 75.47 46.5756 70.4427 46.5756 70.4441C46.5784 70.8617 50.5117 70.9095 50.7325 70.9095C52.8792 70.9095 54.8894 72.489 54.8894 74.6357V75.4714C54.8894 75.8764 55.113 76.2477 55.4702 76.4375C55.6066 76.5106 58.8873 78.2192 64.5194 78.2192C66.8523 78.2192 68.9842 78.9378 70.5213 80.2442C72.2004 81.6709 70.6285 83.8119 68.4252 83.8119H28.7935C28.7928 83.8119 28.7922 83.8113 28.7922 83.8106Z" fill="#BA7894"/>
</svg>
