<svg width="101" height="100" viewBox="0 0 101 100" fill="none" xmlns="http://www.w3.org/2000/svg">
<rect x="1" y="0.500061" width="99" height="99" rx="4.5" fill="#F7E5C1" fill-opacity="0.5" stroke="#422A3C"/>
<path d="M30.5886 42.896C31.3966 42.896 32.0516 42.241 32.0516 41.433C32.0516 40.6251 31.3966 39.97 30.5886 39.97C29.7806 39.97 29.1256 40.6251 29.1256 41.433C29.1256 42.241 29.7806 42.896 30.5886 42.896Z" fill="#BA7894"/>
<path d="M80.0702 39.8992C79.1494 38.841 77.7876 38.2353 76.3347 38.2353H64.5006V35.73C64.5006 32.0609 61.5154 29.0756 57.8463 29.0756H56.6999V28.8892C56.6999 26.2668 54.6211 24.1229 52.0247 24.0144V21.5193C53.1118 21.2648 54.0558 20.8991 54.8495 20.4177C56.3241 19.5228 56.963 18.4415 57.2392 17.6926C57.855 16.02 57.2074 14.1031 55.7646 13.3297C55.354 13.1114 54.9189 13.0001 54.4693 13.0001C53.4906 13.0001 52.5712 13.5436 52.016 14.4327C51.7356 14.6163 50.6629 15.17 47.9292 15.17H41.1188C37.6593 15.17 35.5097 17.5351 35.5097 21.3443C35.5097 23.2107 36.8541 24.73 38.5079 24.73C39.981 24.73 41.2098 23.5244 41.4599 21.9414H44.7314V24.0144C42.135 24.1229 40.0562 26.2668 40.0562 28.8892V29.0756H38.9084C35.2393 29.0756 32.2541 32.0609 32.2541 35.73V35.8283H27.9663C26.0638 35.8283 24.5155 37.3765 24.5155 39.279V45.8003C23.4761 46.6894 22.8154 48.0078 22.8154 49.4809V51.6306C20.8436 53.0387 19.5006 55.2881 19.3285 57.8686C19.2548 59.0005 19.2028 60.2004 19.1753 61.4321C19.1623 62.0552 19.6553 62.5713 20.2783 62.5857C20.9 62.6002 21.4175 62.1058 21.4305 61.4827C21.4565 60.2842 21.5071 59.1191 21.5794 58.0175C21.7298 55.7391 23.1349 53.815 25.0865 52.9042C25.101 52.8984 25.114 52.8912 25.127 52.8854C25.9077 52.5312 26.7722 52.3404 27.6294 52.3404H33.545C34.4052 52.3404 35.2653 52.5312 36.0474 52.8854C36.0619 52.8912 36.0749 52.8984 36.0879 52.9042C38.0612 53.8193 39.4505 55.8447 39.5951 58.0175C39.7093 59.7306 39.7656 61.4914 39.7656 63.2478C39.7656 64.0791 39.7425 64.9089 39.7252 65.7387C39.7237 65.7676 39.7237 65.7965 39.7223 65.8269C39.7121 66.1203 38.8954 66.9299 38.7248 67.2335C38.4443 67.7322 38.2173 68.257 38.0497 68.8034C37.668 70.0438 37.587 71.3521 37.5639 72.6416C37.5307 74.573 37.7229 76.5131 38.1494 78.3982C38.1509 78.4069 38.1523 78.4141 38.1552 78.4228C37.4425 80.3831 35.6094 81.6798 33.5074 81.6798H27.667C25.3439 81.6798 23.3084 80.0231 22.8241 77.7404C22.0565 74.1191 21.5968 70.1479 21.4565 65.9353C21.4363 65.3122 20.9115 64.8236 20.2913 64.8453C19.6683 64.8655 19.1796 65.3874 19.2013 66.0105C19.3459 70.3546 19.823 74.4588 20.6166 78.2088C21.3192 81.528 24.2857 83.9379 27.667 83.9379H33.5103C35.7077 83.9379 37.7027 82.965 39.037 81.3618C39.7497 83.2599 40.7096 85.0207 41.8965 86.5762C42.1105 86.8552 42.4415 87.02 42.7928 87.02H64.0857C64.437 87.02 64.7695 86.8552 64.982 86.5762C65.3261 86.1266 65.6499 85.6582 65.955 85.1768H75.6567C76.2798 85.1768 76.7857 84.6723 76.7857 84.0478V74.732L79.4645 55.3806C79.5498 54.7633 79.119 54.1937 78.5017 54.1084C77.883 54.0232 77.3148 54.454 77.2295 55.0712L75.0871 70.5512H69.1889C69.1122 69.8096 68.9503 69.0781 68.6887 68.3799C67.8849 66.2374 66.2398 64.5475 64.1768 63.6656L64.1363 63.3693L61.326 43.0666C61.3159 42.9943 61.3101 42.9206 61.3072 42.8483C61.3072 42.844 61.3072 42.8411 61.3072 42.8367C61.287 42.1067 61.6787 41.4489 62.2483 41.0167C62.7066 40.6697 63.308 40.4934 63.879 40.4934H76.3361C77.1356 40.4934 77.8772 40.8172 78.3702 41.3824C78.7894 41.8638 78.9744 42.4623 78.8906 43.0652L77.8541 50.5551C77.7688 51.1723 78.1996 51.7419 78.8169 51.8272C79.4342 51.9125 80.0037 51.4817 80.089 50.8644L81.1256 43.3731C81.299 42.1139 80.9246 40.8793 80.0702 39.8992ZM41.1173 19.6833C40.5969 19.6833 39.9507 19.7426 39.5763 20.1546C39.2828 20.4769 39.2481 20.9294 39.2481 21.3443C39.2481 22.0093 38.8578 22.4734 38.5065 22.4734C38.1552 22.4734 37.7649 22.0093 37.7649 21.3443C37.7649 17.9355 39.8654 17.4281 41.1173 17.4281H47.9278C48.9802 17.4281 50.0731 17.3616 51.1183 17.1361C52.0189 16.9409 53.0265 16.6518 53.6887 15.9752C53.9301 15.728 54.0472 15.2596 54.4679 15.2596C54.543 15.2596 54.6168 15.2798 54.6934 15.3203C55.0924 15.5343 55.3584 16.2614 55.117 16.9149C54.9232 17.4411 54.0833 18.9287 50.7366 19.478C50.728 19.4794 50.7207 19.4794 50.7121 19.4809C49.7926 19.6312 48.8587 19.6847 47.9278 19.6847H45.859L41.1173 19.6833ZM49.7652 21.8662V24.0072H46.9881V21.9399C46.991 21.9891 49.7652 21.8893 49.7652 21.8662ZM44.9353 26.2639H45.859H50.8942H51.818C53.2636 26.2639 54.4404 27.4406 54.4404 28.8863V29.0728H42.3129V28.8863C42.3129 27.4406 43.4896 26.2639 44.9353 26.2639ZM26.7736 39.2833C26.7736 39.2819 26.7736 39.279 26.7736 39.2776C26.7736 38.6198 27.3085 38.0849 27.9663 38.0849H33.2096C33.2357 38.0849 33.2602 38.0878 33.2848 38.0892C33.2906 38.0892 33.2949 38.0907 33.2993 38.0907C34.622 38.1876 34.4023 39.7272 34.4023 40.6524C34.4023 41.7756 34.4023 42.8989 34.4023 44.0222C34.4023 44.2549 34.4023 44.4862 34.4023 44.719C34.1117 44.6655 33.8154 44.638 33.519 44.638C33.519 44.638 27.6584 44.638 27.6555 44.638C27.3822 44.638 27.0627 44.7175 26.7751 44.7089C26.6898 42.9119 26.7736 41.0846 26.7736 39.2833ZM36.1038 50.4842C36.1038 50.1561 33.8631 50.0809 33.545 50.0809H27.6323C26.7664 50.0809 25.8976 50.2182 25.0735 50.4842C25.0735 50.4842 25.0735 49.4795 25.0735 49.478C25.0735 48.083 26.2619 46.8932 27.6584 46.8932H33.5219C34.3705 46.8932 35.1902 47.3327 35.6643 48.0353C36.1587 48.7682 36.1038 49.6414 36.1038 50.4842ZM67.6955 81.8518C67.7129 81.7955 67.7259 81.7521 67.736 81.7246C68.1278 80.6173 68.4776 79.4897 68.7335 78.3418C69.1383 76.529 69.3363 74.6626 69.3146 72.805H74.5291V74.6511V82.9158C74.5291 82.9158 67.191 82.9158 67.1881 82.9158C67.3818 82.9173 67.5958 82.1814 67.6955 81.8518ZM66.4841 68.9596H61.1554C60.5323 68.9596 60.0264 69.4641 60.0264 70.0886C60.0264 70.7131 60.5309 71.2177 61.1554 71.2177H66.9814C66.9857 71.2654 66.9886 71.3145 66.9929 71.3622C67.3442 76.0375 66.26 80.9122 63.5162 84.7619H43.3638C41.9804 82.8219 40.9785 80.545 40.3988 78.0874C39.8712 75.8481 39.7064 73.5105 39.8972 71.2177H56.6407C57.2637 71.2177 57.7697 70.7131 57.7697 70.0886C57.7697 69.4641 57.2652 68.9596 56.6407 68.9596H40.3916C40.6836 68.2671 41.1057 67.6325 41.6435 67.0831C42.7697 65.9324 44.3787 65.2472 46.0079 65.2472H60.8706C61.3867 65.2472 61.8956 65.3137 62.3857 65.4423C64.1927 65.9122 65.7439 67.2046 66.4841 68.9596ZM62.2425 38.5027C62.2425 38.4955 60.8966 39.2009 60.768 39.3021C58.5532 41.0673 59.1243 43.6463 59.4611 46.0822L61.8088 63.0425C61.8016 63.0411 61.7944 63.0411 61.7857 63.0411C61.6571 63.0266 61.5269 63.0165 61.3968 63.0079C61.3679 63.0064 61.3405 63.0035 61.3115 63.0021C61.1655 62.9948 61.0181 62.9891 60.8692 62.9891H46.0079C45.2923 62.9891 44.5782 63.0816 43.8857 63.2623C43.5489 63.3505 43.2164 63.4589 42.894 63.5861C42.7755 63.6338 42.0223 63.8955 42.0208 63.9938C42.0237 63.7422 42.0237 63.4936 42.0237 63.2449C42.0237 61.4379 41.9645 59.6279 41.8474 57.8657C41.7621 56.5805 41.3689 55.3127 40.7198 54.201C40.4249 53.6964 40.0765 53.2223 39.6832 52.79C39.4794 52.5659 39.264 52.3534 39.037 52.1539C38.9517 52.0788 38.3605 51.6971 38.3605 51.6176V49.4766C38.3605 48.0844 37.7316 46.7038 36.6604 45.7931V39.2761C36.6604 39.1952 36.6561 39.1157 36.6503 39.0361C36.6488 39.0202 36.6474 39.0029 36.6459 38.987C36.5361 37.67 35.6846 36.5612 34.5107 36.0812V35.7271C34.5107 33.3027 36.484 31.3294 38.9084 31.3294H41.1838H55.568H57.8434C60.2678 31.3294 62.2411 33.3027 62.2411 35.7271C62.2425 35.7285 62.2425 38.5027 62.2425 38.5027Z" fill="#BA7894"/>
</svg>
