<svg width="101" height="100" viewBox="0 0 101 100" fill="none" xmlns="http://www.w3.org/2000/svg">
<rect x="1" y="0.5" width="99" height="99" rx="4.5" fill="#F7E5C1" fill-opacity="0.5" stroke="#422A3C"/>
<path d="M28.668 69.059C28.4721 69.5568 27.9967 69.8596 27.4928 69.8596C27.338 69.8596 27.1801 69.8311 27.0269 69.7692C22.1919 67.8461 19.2587 65.3743 18.5415 62.6235C18.3646 61.9465 18.769 61.2521 19.445 61.0761C20.1211 60.9001 20.8113 61.3044 20.9867 61.983C21.4842 63.8919 23.961 65.8214 27.9604 67.4132C28.608 67.6701 28.9255 68.4073 28.668 69.059ZM32.9628 55.7806C33.2013 55.9836 33.4919 56.0835 33.781 56.0835C34.138 56.0835 34.4934 55.9312 34.7429 55.6379C35.1962 55.1052 35.1315 54.3046 34.6008 53.8495C33.9737 53.3136 33.3608 52.746 32.778 52.161C28.3644 47.7308 25.6217 42.3463 25.1241 37.4878C24.9028 35.3267 26.6716 33.556 28.8323 33.7808C30.0826 33.9109 31.3676 34.1914 32.6621 34.6125C32.7845 34.6524 32.9005 34.7072 33.0222 34.7491C33.1432 34.7909 33.2696 34.8197 33.3898 34.8635C36.8676 36.1323 40.3811 38.3951 43.4367 41.4622C44.2186 42.247 44.9641 43.081 45.6512 43.9372C46.0888 44.4826 46.8849 44.5682 47.4282 44.129C47.9716 43.6898 48.0569 42.8907 47.6194 42.3453C46.8754 41.4178 46.0698 40.5173 45.2232 39.6675C42.778 37.2132 40.0459 35.23 37.2373 33.799C35.7005 33.0161 34.5351 31.3397 34.8143 29.6377C35.1341 27.6878 37.1584 26.8554 38.8632 27.8544C39.1687 28.0334 39.4727 28.2282 39.7743 28.4383C41.2189 29.445 41.6545 31.3048 41.3853 33.0448C41.3562 33.2333 41.3287 33.4225 41.3028 33.6126C41.208 34.307 41.6913 34.9459 42.3832 35.0411C43.075 35.1362 43.7116 34.6511 43.8063 33.9566C44.4398 29.3238 46.0949 25.2451 48.4366 22.3397C49.8057 20.6412 52.3198 20.6412 53.689 22.3396C56.0307 25.2444 57.6857 29.3219 58.3192 33.9534C58.414 34.6479 59.0505 35.133 59.7424 35.0379C60.4342 34.9428 60.9175 34.3022 60.8228 33.6094C60.7971 33.4207 60.7697 33.2329 60.7408 33.0458C60.4717 31.3052 60.907 29.4446 62.3523 28.4379C62.653 28.2284 62.9561 28.0342 63.2607 27.8557C64.9661 26.8561 66.991 27.6891 67.311 29.6398C67.5901 31.3406 66.4261 33.0162 64.8905 33.7988C62.0811 35.2304 59.3481 37.2137 56.9023 39.6675C56.0557 40.5173 55.2501 41.4178 54.5062 42.3453C54.0686 42.8907 54.1539 43.6898 54.6973 44.129C55.2407 44.5682 56.0367 44.4826 56.4743 43.9372C57.1614 43.081 57.9069 42.2486 58.6888 41.4622C61.744 38.3956 65.2554 36.1314 68.7327 34.864C68.8539 34.8198 68.9819 34.7909 69.1039 34.7489C69.2256 34.707 69.341 34.6524 69.4635 34.6126C70.7579 34.1922 72.0428 33.9117 73.2931 33.7814C75.4538 33.5563 77.2227 35.3268 77.0015 37.4879C76.504 42.3474 73.7614 47.7319 69.3476 52.161C68.7647 52.746 68.1518 53.3136 67.5248 53.8495C66.994 54.303 66.9293 55.1036 67.381 55.6379C67.8328 56.1707 68.6304 56.2357 69.1628 55.7822C69.8404 55.2035 70.5038 54.5884 71.134 53.9557C77.5533 47.514 80.7329 39.0872 79.2387 32.4901C79.1312 32.0144 78.7616 31.6434 78.2862 31.534C77.6611 31.3912 77.0195 31.2909 76.3647 31.2317C73.1252 30.9392 70.0969 28.5468 68.6946 25.612C68.5145 25.2349 68.3165 24.874 68.1013 24.531C67.8423 24.1188 67.37 23.892 66.8866 23.9475C66.5134 23.9909 66.1382 24.0553 65.7623 24.1402C62.3262 24.9159 58.0751 23.9153 55.9342 21.1179C54.7034 19.5096 53.2898 18.1777 51.7341 17.195C51.3234 16.935 50.799 16.935 50.3883 17.195C48.8325 18.1777 47.419 19.5096 46.1881 21.1179C44.0473 23.9153 39.7965 24.9151 36.3603 24.14C35.9844 24.0552 35.6092 23.9909 35.2357 23.9475C34.7524 23.892 34.2817 24.1188 34.0226 24.531C33.8079 24.8735 33.6105 25.234 33.4308 25.6106C32.0297 28.5463 29.0013 30.9391 25.7616 31.2318C25.107 31.291 24.4657 31.3913 23.8409 31.534C23.367 31.6418 22.9974 32.0144 22.8884 32.4901C21.3926 39.0872 24.5738 47.5124 30.9931 53.9557C31.6217 54.5868 32.2852 55.2003 32.9628 55.7806ZM32.3641 65.6993C32.5947 65.0382 32.2472 64.3152 31.5886 64.0837C27.7756 62.7456 25.4994 61.0539 25.4994 59.5604C25.4994 58.5948 26.4914 57.504 28.2921 56.4877C28.9002 56.1453 29.1166 55.3716 28.7738 54.7612C28.4326 54.1508 27.6618 53.9336 27.0537 54.2776C24.3448 55.806 22.9722 57.5833 22.9722 59.562C22.9722 62.3017 25.6637 64.6926 30.7546 66.481C30.892 66.5301 31.0326 66.5523 31.1716 66.5523C31.6944 66.5507 32.1825 66.2225 32.3641 65.6993ZM70.2874 64.1725C69.6271 64.3977 69.2733 65.1175 69.4976 65.7818C69.6761 66.3097 70.1673 66.6427 70.6933 66.6427C70.8276 66.6427 70.965 66.6205 71.0993 66.5745C76.3702 64.7782 79.1581 62.3524 79.1581 59.5604C79.1581 57.6531 77.8787 55.9297 75.3561 54.4377C74.7543 54.0826 73.9804 54.2824 73.6265 54.8864C73.2727 55.4905 73.4717 56.2674 74.0735 56.6225C75.7226 57.5976 76.6308 58.6408 76.6308 59.5588C76.6292 61.0713 74.1999 62.8391 70.2874 64.1725ZM63.5964 73.4428C63.5964 74.727 62.5555 75.7734 61.2745 75.7734C60.5764 75.7734 60.0109 76.341 60.0109 77.0418C60.0109 77.7426 60.5764 78.3102 61.2745 78.3102C63.9487 78.3102 66.1237 76.127 66.1237 73.4428C66.1237 72.742 65.5582 72.1744 64.8601 72.1744C64.1619 72.1744 63.5964 72.742 63.5964 73.4428ZM82.5541 61.0761C81.8797 60.9001 81.1878 61.3044 81.0125 61.983C80.5149 63.8935 78.0398 65.8214 74.0404 67.4132C73.3912 67.6717 73.0737 68.4089 73.3312 69.0605C73.527 69.5584 74.0041 69.8612 74.5063 69.8612C74.6611 69.8612 74.8191 69.8327 74.9723 69.7708C79.8073 67.8461 82.7421 65.3743 83.4592 62.6235C83.6345 61.9465 83.2286 61.2537 82.5541 61.0761ZM60.0993 61.6263C60.0993 62.3175 59.5402 62.8788 58.8515 62.8788C58.1533 62.8788 57.5879 63.4464 57.5879 64.1472C57.5879 64.8479 58.1533 65.4155 58.8515 65.4155C60.9333 65.4155 62.6266 63.7159 62.6266 61.6263C62.6266 60.9255 62.0611 60.3579 61.363 60.3579C60.6648 60.3579 60.0993 60.9271 60.0993 61.6263ZM56.4885 53.5261H56.8186C57.5168 53.5261 58.0823 52.9585 58.0823 52.2577C58.0823 51.5569 57.5168 50.9893 56.8186 50.9893H56.4885C55.7903 50.9893 55.2249 51.5569 55.2249 52.2577C55.2249 52.9585 55.7919 53.5261 56.4885 53.5261ZM69.5418 68.068C70.6996 69.6805 71.3125 71.5814 71.3125 73.5649C71.3125 78.7668 67.0967 83 61.9126 83H40.2176C35.0351 83 30.8178 78.7684 30.8178 73.5664C30.8178 71.2016 31.712 68.9745 33.2261 67.2772C34.4176 65.9415 35.0367 64.0313 35.0367 62.2414C35.0367 60.1915 35.8475 58.3279 37.164 56.9568C38.4026 55.6668 39.0803 53.5022 39.0803 51.7139C39.0803 48.4716 41.7087 45.8334 44.9389 45.8334H57.1914C60.4216 45.8334 63.0499 48.4716 63.0499 51.7139C63.0499 54.9562 60.4216 57.5944 57.1914 57.5944H44.9389C44.1829 57.5944 43.4605 57.4494 42.7955 57.1877C42.7423 57.1667 42.6852 57.1584 42.628 57.1584C39.8354 57.1584 37.564 59.4383 37.564 62.2414C37.564 63.2894 37.8815 64.2661 38.4264 65.0762C38.4691 65.1286 38.5086 65.1841 38.5433 65.2427C39.4658 66.5032 40.9537 67.3244 42.628 67.3244H59.5023C62.2949 67.3244 64.5663 65.0445 64.5663 62.2414C64.5663 60.7321 63.8966 59.3067 62.7277 58.3317C62.1906 57.8845 62.118 57.0839 62.5634 56.5448C63.0089 56.0058 63.8065 55.9328 64.3436 56.3799C66.0905 57.8386 67.0936 59.9742 67.0936 62.2398C67.0936 66.4413 63.6881 69.8596 59.5023 69.8596H42.628C41.795 69.8596 40.9928 69.7242 40.2423 69.4741C38.11 68.7637 35.503 68.0815 34.3409 70.0052C33.7042 71.0591 33.345 72.2845 33.345 73.5649C33.345 77.3684 36.4283 80.4632 40.2176 80.4632H61.9126C65.702 80.4632 68.7852 77.3684 68.7852 73.5664C68.7852 72.1189 68.3382 70.7316 67.4916 69.5536C67.0841 68.986 67.212 68.1933 67.7775 67.7826C68.343 67.372 69.1327 67.5004 69.5418 68.068ZM41.6076 51.7139C41.6076 53.5578 43.1019 55.0577 44.9389 55.0577H57.1914C59.0284 55.0577 60.5227 53.5578 60.5227 51.7139C60.5227 49.87 59.0284 48.3701 57.1914 48.3701H44.9389C43.1019 48.3701 41.6076 49.87 41.6076 51.7139Z" fill="#BA7894"/>
</svg>
